<?xml version="1.0" encoding="UTF-8"?>
<svg id="Layer_1" data-name="Layer 1" xmlns="http://www.w3.org/2000/svg" xmlns:xlink="http://www.w3.org/1999/xlink" viewBox="0 0 74 66">
  <defs>
    <style>
      .cls-1 {
        fill: url(#linear-gradient);
      }
    </style>
    <linearGradient id="linear-gradient" x1="6.34" y1=".34" x2="66.88" y2="68.78" gradientTransform="translate(74 68) rotate(-180)" gradientUnits="userSpaceOnUse">
      <stop offset=".08" stop-color="#9945ff"/>
      <stop offset=".3" stop-color="#8752f3"/>
      <stop offset=".5" stop-color="#5497d5"/>
      <stop offset=".6" stop-color="#43b4ca"/>
      <stop offset=".72" stop-color="#28e0b9"/>
      <stop offset=".97" stop-color="#19fb9b"/>
    </linearGradient>
  </defs>
  <path class="cls-1" d="M.38,52.04l12.22,13.06c.54.57,1.29.9,2.07.9h57.91c.56,0,1.07-.33,1.3-.85.23-.52.12-1.12-.26-1.53l-12.23-13.06c-.54-.57-1.29-.9-2.07-.9H1.42c-.56,0-1.07.33-1.3.85-.23.52-.12,1.12.26,1.53H.38ZM12.6,25.73c.54-.57,1.29-.9,2.07-.9h57.91c.56,0,1.07.33,1.3.85.23.52.12,1.12-.26,1.53l-12.23,13.06c-.54.57-1.29.9-2.07.9H1.42c-.56,0-1.07-.33-1.3-.85-.23-.52-.12-1.12.26-1.53l12.22-13.06ZM72.58,16.34H14.67c-.79,0-1.54-.33-2.07-.9L.38,2.38C-.15,1.81-.12.91.45.38.71.14,1.06,0,1.42,0h57.91c.78,0,1.53.33,2.07.9l12.22,13.07c.53.57.51,1.46-.06,2-.26.25-.61.38-.97.38Z"/>
</svg>